<svg preserveAspectRatio="none" width="100%" height="100%" overflow="visible" style="display: block;" viewBox="0 0 24 24" fill="none" xmlns="http://www.w3.org/2000/svg">
<path id="Union" fill-rule="evenodd" clip-rule="evenodd" d="M12 0C18.6274 5.39786e-06 24 5.37257 24 12C24 18.6274 18.6274 24 12 24C5.37257 24 5.40067e-06 18.6274 0 12C5.40068e-06 5.37257 5.37257 5.39787e-06 12 0ZM12 2.1818C6.57756 2.1818 2.1818 6.57756 2.1818 12C2.1818 17.4224 6.57756 21.8182 12 21.8182C12.2356 21.8182 12.4692 21.8098 12.7006 21.7935C9.63692 19.62 7.63636 16.0445 7.63636 12C7.63636 11.7175 7.64608 11.4373 7.66528 11.1597C7.60942 10.9229 7.63512 10.6747 7.73476 10.4559C8.17176 7.05385 10.0333 4.09876 12.7007 2.20641C12.4692 2.19009 12.2356 2.1818 12 2.1818ZM15.0468 20.6819C15.2976 20.8147 15.5548 20.937 15.8179 21.0482C17.8412 20.1933 19.5183 18.6797 20.5803 16.776L15.0468 20.6819ZM12.204 18.4157C12.4935 18.7508 12.8052 19.0661 13.137 19.3594L21.734 13.2909C21.7895 12.8685 21.8182 12.4376 21.8182 12C21.8182 11.851 21.8148 11.7028 21.8082 11.5554L12.204 18.4157ZM10.3831 15.2905C10.5463 15.7491 10.7426 16.1921 10.9691 16.6165L21.4023 9.16415C21.288 8.78455 21.1513 8.41463 20.9938 8.05593L10.3831 15.2905ZM9.83206 11.475C9.82289 11.6488 9.81815 11.8239 9.81815 12C9.81815 12.3377 9.83528 12.6715 9.86859 13.0006L19.896 6.16372C19.6363 5.81299 19.3538 5.48018 19.0507 5.16746L9.83206 11.475ZM15.8179 2.95178C13.4043 3.97164 11.4844 5.9285 10.5128 8.36553L17.2909 3.72791C16.8253 3.42948 16.3328 3.16931 15.8179 2.95178Z" fill="var(--fill-0, #676767)"/>
</svg>
